<?xml version="1.0" encoding="utf-8"?><svg viewBox="0 0 28 28" xmlns="http://www.w3.org/2000/svg" xmlns:xlink="http://www.w3.org/1999/xlink"><style>:root>svg{display:none}:root>svg:target{display:block}</style><svg fill="none" viewBox="0 0 28 20" id="CombinedShape" xmlns="http://www.w3.org/2000/svg"><path d="M14.793 7.32l.084.006c.11.016.215.068.29.179l4.76 6.746 1.213-1.895c.093-.138.233-.23.373-.23.14 0 .28.046.374.184l4.246 6.1h1.4c.28 0 .467.184.467.461s-.187.462-.467.462H.467c-.28 0-.467-.184-.467-.462 0-.277.187-.462.467-.462H1.82L7 9.492a.491.491 0 01.42-.231c.187 0 .327.092.42.23l2.473 3.974 4.107-5.96c.093-.093.233-.185.373-.185zm-.046 1.34l-4.154 5.96c-.046.093-.233.185-.373.185-.14 0-.28-.092-.373-.23L7.42 10.646l-4.527 7.808H24.92l-3.5-4.99-1.213 1.895c-.094.138-.234.23-.374.23a.426.426 0 01-.373-.184L14.747 8.66zM23.333.667c1.68 0 3.034 1.34 3.034 3.003s-1.354 3.003-3.034 3.003c-1.68 0-3.033-1.34-3.033-3.003S21.653.667 23.333.667zm0 .924c-1.166 0-2.1.924-2.1 2.079 0 1.155.934 2.08 2.1 2.08 1.167 0 2.1-.925 2.1-2.08s-.933-2.08-2.1-2.08z" fill="#fff"/></svg><svg fill="none" viewBox="0 0 26 28" id="DesignedIcons" xmlns="http://www.w3.org/2000/svg"><path d="M22.854 0c1.65 0 2.98 1.395 2.98 3.07v18.65c0 .094 0 .14-.046.233l-3.346 5.582c-.184.279-.459.465-.78.465-.32 0-.595-.186-.779-.465l-3.345-5.582c-.046-.046-.046-.139-.046-.232V3.07c0-1.675 1.375-3.07 3.025-3.07h2.337zM8.646.093c1.237 0 2.291 1.023 2.291 2.326v23.209c0 1.302-1.008 2.325-2.291 2.325H2.458c-1.283 0-2.291-1.023-2.291-2.325V2.418C.167 1.117 1.175.094 2.458.094h6.188zm16.27 5.86h-6.508v15.628l3.255 5.489 3.254-5.489V5.953zm-16.27-4.93H2.458c-.779 0-1.375.605-1.375 1.396v1.628h3.942c.275 0 .458.186.458.465s-.183.465-.458.465H1.083v3.628h1.559c.275 0 .458.186.458.465s-.183.465-.458.465H1.083v3.628h3.942c.275 0 .458.186.458.465s-.183.465-.458.465H1.083v3.628h1.559c.275 0 .458.186.458.465 0 .28-.183.465-.458.465H1.083v3.628h3.942c.275 0 .458.186.458.465 0 .28-.183.465-.458.465H1.083v2.372c0 .791.596 1.396 1.375 1.396h6.188c.779 0 1.375-.605 1.375-1.396V2.42c0-.791-.596-1.396-1.375-1.396zM22.854.93h-2.337c-1.146 0-2.109.977-2.109 2.14v1.953h6.509V3.07c0-1.163-.917-2.14-2.063-2.14z" fill="#fff"/></svg><svg fill="none" viewBox="0 0 26 28" id="LifetimeWarrantyIcon" xmlns="http://www.w3.org/2000/svg"><path d="M20.38 0c.235 0 .423.14.47.373a5.37 5.37 0 004.466 4.434c.188 0 .376.233.517.466v4.294c0 4.013-1.269 7.933-3.572 11.246a20.035 20.035 0 01-9.073 7.14C13.094 28 13.047 28 13 28c-.094 0-.141-.047-.188-.047a20.035 20.035 0 01-9.073-7.14A19.284 19.284 0 01.167 9.567V5.273c0-.233.14-.42.376-.466C2.799 4.48 4.633 2.613 5.009.373A.505.505 0 015.479 0H20.38zm-.423.887H5.855c-.517 2.38-2.398 4.2-4.795 4.76V9.52c0 3.873 1.175 7.56 3.384 10.733 2.116 3.034 5.03 5.32 8.462 6.72 3.432-1.353 6.346-3.686 8.461-6.72 2.21-3.173 3.385-6.86 3.385-10.733V5.647c-2.397-.56-4.278-2.38-4.795-4.76zm-2.914 8.866c.188-.186.517-.14.61.094.189.186.142.513-.046.653l-6.44 5.18a.506.506 0 01-.282.093h-.047c-.141 0-.235-.093-.33-.186l-2.444-3.36c-.14-.234-.094-.514.094-.654.235-.14.517-.093.658.094l2.163 2.94 6.064-4.854z" fill="#fff"/></svg><svg fill="none" viewBox="0 0 28 26" id="PremiumMaterialsIcon" xmlns="http://www.w3.org/2000/svg"><path d="M25.527 2.988H9.24A4.793 4.793 0 004.853.167C2.147.213 0 2.34 0 4.977v16.047c0 2.636 2.147 4.81 4.853 4.81h20.674c1.4 0 2.473-1.11 2.473-2.452V5.485a2.488 2.488 0 00-2.473-2.497zM.933 4.976c0-2.127 1.727-3.884 3.92-3.884 2.194 0 3.92 1.71 3.92 3.884v13.227a4.83 4.83 0 00-3.92-1.989 4.896 4.896 0 00-3.92 1.989V4.976zm0 16.094c0-2.127 1.727-3.885 3.92-3.885 2.194 0 3.92 1.712 3.92 3.885 0 2.174-1.726 3.885-3.92 3.885-2.193 0-3.92-1.758-3.92-3.885zm26.134 2.312c0 .833-.7 1.526-1.54 1.526H7.7c1.213-.878 2.007-2.266 2.007-3.884V4.976c0-.37-.047-.74-.14-1.063h15.96c.84 0 1.54.693 1.54 1.572v17.897z" fill="#fff"/></svg><svg fill="none" viewBox="0 0 28 28" id="QAIcon" xmlns="http://www.w3.org/2000/svg"><path d="M10.967 0c2.94 0 5.693 1.12 7.746 3.22 4.2 4.153 4.294 10.873.327 15.167l8.82 8.82a.451.451 0 010 .653.504.504 0 01-.327.14.504.504 0 01-.326-.14l-8.82-8.82c-2.054 1.867-4.667 2.893-7.42 2.893-2.94 0-5.694-1.166-7.747-3.22-4.293-4.246-4.293-11.246 0-15.493C5.273 1.12 8.027 0 10.967 0zm0 .933a9.956 9.956 0 00-7.094 2.94 10.027 10.027 0 000 14.187A9.956 9.956 0 0010.967 21c2.706 0 5.18-1.073 7.093-2.94l.23-.238a10.027 10.027 0 00-.23-13.949 9.956 9.956 0 00-7.093-2.94zm0 6.394c3.22 0 5.74 2.8 5.833 2.94.14.186.14.466 0 .606-.093.094-2.613 2.94-5.833 2.94s-5.74-2.8-5.834-2.94a.49.49 0 010-.606c.094-.094 2.614-2.94 5.834-2.94zm0 .933c-2.194 0-4.107 1.633-4.807 2.333.7.7 2.613 2.334 4.807 2.334 2.193 0 4.106-1.634 4.806-2.334-.7-.7-2.613-2.333-4.806-2.333zm0 1.307c.56 0 1.026.466 1.026 1.026s-.466 1.027-1.026 1.027-1.027-.467-1.027-1.027c0-.56.467-1.026 1.027-1.026z" fill="#fff"/></svg><svg fill="none" viewBox="0 0 26 28" id="SustainableMaterialsIcon" xmlns="http://www.w3.org/2000/svg"><path d="M25.52 3.733c-.238-.093-5.925-1.866-9.433-.046-1.99 1.026-3.507 2.473-4.265 4.06-.285-1.494-1.09-3.034-2.323-4.434C6.939.42.968 0 .731 0a.514.514 0 00-.522.42c0 .233-.521 6.02 2.086 8.96 1.848 2.053 4.123 3.22 6.02 3.22.852 0 1.61-.233 2.227-.7-.711 2.24-1.707 7.467-.095 15.727.047.233.237.373.474.373h.095a.484.484 0 00.379-.56c-1.943-9.8 0-15.213.427-16.24.71 1.26 2.227 1.913 4.076 1.913 1.422 0 3.033-.373 4.597-1.213 3.508-1.773 5.261-7.327 5.309-7.56.094-.28-.048-.513-.285-.607zM3.005 8.773C1.062 6.627 1.062 2.38 1.11.98c1.422.14 5.735.793 7.678 2.94 1.47 1.633 2.275 3.64 2.18 5.227-.047.793-.379 1.446-.853 1.866-1.611 1.354-4.787.327-7.11-2.24zm17.063 2.287c-3.081 1.587-6.494 1.4-7.49-.42-.33-.56-.33-1.26-.094-2.053.474-1.54 2.038-3.127 4.029-4.107.995-.513 2.227-.7 3.46-.7 1.99 0 3.934.467 4.787.7-.474 1.353-2.086 5.273-4.692 6.58z" fill="#fff"/></svg></svg>