<?xml version="1.0" encoding="utf-8"?><svg viewBox="0 0 160 48" xmlns="http://www.w3.org/2000/svg" xmlns:xlink="http://www.w3.org/1999/xlink"><style>:root>svg{display:none}:root>svg:target{display:block}</style><svg fill="none" viewBox="0 0 128 39" id="OutdoorLogotypeHorizontalPrimary" xmlns="http://www.w3.org/2000/svg"><path fill-rule="evenodd" clip-rule="evenodd" d="M19.297 0c10.64 0 19.296 8.748 19.296 19.5S29.936 39 19.297 39C8.657 39 0 30.252 0 19.5S8.657 0 19.297 0zm0 2.208C9.86 2.208 2.185 9.964 2.185 19.5c0 9.535 7.676 17.292 17.112 17.292 9.436 0 17.111-7.757 17.111-17.292 0-9.536-7.675-17.292-17.111-17.292zm1.092 3.753c0 3.401 2.739 6.167 6.104 6.167v2.208c-2.416 0-4.587-1.056-6.104-2.729v1.229c0 3.4 2.739 6.167 6.104 6.167v2.207c-2.416 0-4.587-1.056-6.104-2.729v1.229c0 3.4 2.739 6.167 6.104 6.167v2.207c-2.416 0-4.587-1.056-6.104-2.729v7.683h-2.185v-7.681c-1.515 1.671-3.686 2.727-6.103 2.727v-2.207c3.366 0 6.103-2.766 6.103-6.167v-1.227c-1.515 1.671-3.686 2.727-6.103 2.727v-2.207c3.366 0 6.103-2.767 6.103-6.167v-1.229c-1.515 1.673-3.686 2.73-6.103 2.73v-2.209c3.366 0 6.103-2.766 6.103-6.167h2.185zm103.098 17.07l2.518 4.686V23.03H128v8.504h-2.057l-2.456-4.674v4.674h-1.995V23.03h1.995zm-42.169 0c.586 0 .986.404.986.995v6.513c0 .592-.4.995-.986.995h-4.325c-.586 0-.985-.403-.985-.995v-6.513c0-.591.399-.994.985-.994h4.325zm16.962 0c.585 0 .984.404.984.995v7.508h-2.168v-2.117h-1.907v2.117h-2.17v-7.508c0-.591.4-.996.985-.996h4.276zm19.904 0c.586 0 .986.404.986.995v6.513c0 .592-.4.995-.986.995h-4.325c-.586 0-.985-.403-.985-.995v-6.513c0-.591.399-.994.985-.994h4.325zm-7.631 0v8.503h-2.156V23.03h2.156zm-55.25 0l1.273 2.43 1.059-2.43h2.332l-2.319 4.396 2.293 4.107h-2.393l-1.246-2.344-1.197 2.343h-2.281l2.443-4.245-2.38-4.257h2.417zm34.609 0c.511 0 .946.416.946.958v3.892a.968.968 0 01-.946.957h-.063l1.035 2.695h-2.12l-1.046-2.695h-.922v2.695h-2.17v-8.502h5.286zm-38.24 0v1.827h-3.34v1.486h2.892v1.813h-2.892v1.538h3.34v1.838h-5.496v-8.502h5.497zm14.993 0c.51 0 .946.416.946.958v4.37c0 .505-.437.957-.947.957h-2.979v2.217h-2.17v-8.502h5.15zm5.138 0v6.664h2.681v1.838h-4.837v-8.502h2.156zm34.983 0v1.839h-1.907v6.663h-2.169V24.87h-1.908V23.03h5.984zm-26.788 1.84H78.29c-.05 0-.112.063-.112.138v4.572c0 .064.062.114.112.114h1.707c.075 0 .137-.05.137-.114V25.01a.14.14 0 00-.136-.138zm36.865 0h-1.707c-.05 0-.112.063-.112.138v4.572c0 .064.062.114.112.114h1.707c.075 0 .137-.05.137-.114V25.01a.139.139 0 00-.137-.138zm-20.067-.102H95.45c-.15 0-.26.114-.26.252v2.557h1.906v-2.557c0-.15-.125-.252-.3-.252zm-31.466.088h-1.645v2.659h1.645c.063 0 .113-.063.113-.114v-2.419c0-.063-.05-.126-.113-.126zm23.26 0h-1.794v2.268h1.794c.05 0 .112-.063.112-.114v-2.028c0-.063-.062-.126-.112-.126zm-9.646-17.39v2.691h-2.792v9.756h-3.176v-9.756h-2.791V7.466h8.759zm47.632-.001c.748 0 1.387.609 1.387 1.402v5.698c0 .755-.639 1.4-1.387 1.4h-.09L128 19.914h-3.102l-1.532-3.946h-1.351v3.946h-3.176V7.466h7.737zm-64.61 0v9.59c0 .092.091.165.164.165h2.318c.11 0 .2-.073.2-.166V7.466h3.176v11.027c0 .812-.621 1.42-1.388 1.42h-6.24a1.413 1.413 0 01-1.405-1.42V7.466h3.175zm-8.017 0c.858 0 1.442.59 1.442 1.457v9.534c0 .867-.584 1.456-1.442 1.456h-6.331c-.858 0-1.443-.59-1.443-1.456V8.923c0-.867.585-1.456 1.443-1.456h6.33zm33.978 0c1.35 0 2.5 1.125 2.5 2.526v7.377c0 1.42-1.15 2.544-2.5 2.544h-6.625V7.466h6.625zm13.563 0c.858 0 1.443.59 1.443 1.457v9.534c0 .867-.585 1.456-1.443 1.456h-6.33c-.858 0-1.443-.59-1.443-1.456V8.923c0-.867.585-1.456 1.442-1.456h6.331zm12.507 0c.858 0 1.442.59 1.442 1.457v9.534c0 .867-.584 1.456-1.442 1.456h-6.331c-.858 0-1.442-.59-1.442-1.456V8.923c0-.867.584-1.456 1.442-1.456h6.331zm-27.622 2.675h-1.898v7.08h1.898c.53 0 .894-.369.894-.904v-5.274c0-.535-.365-.902-.894-.902zm-34.36.018h-2.5c-.073 0-.164.092-.164.203v6.694c0 .092.091.165.164.165h2.5c.11 0 .2-.073.2-.165v-6.694a.204.204 0 00-.2-.203zm47.541 0h-2.5c-.072 0-.163.092-.163.203v6.694c0 .092.09.165.164.165h2.5c.11 0 .2-.073.2-.165v-6.694a.204.204 0 00-.2-.203zm12.507 0h-2.5c-.073 0-.164.092-.164.203v6.694c0 .092.091.165.164.165h2.5c.11 0 .201-.073.201-.165v-6.694a.204.204 0 00-.201-.203zm12.579-.02h-2.627v3.32h2.627c.073 0 .164-.092.164-.166v-2.969c0-.092-.091-.184-.164-.184z" fill="#575445"/></svg><svg fill="none" viewBox="0 0 160 48" id="OutdoorLogotypeHorizontalWhite" xmlns="http://www.w3.org/2000/svg"><path fill-rule="evenodd" clip-rule="evenodd" d="M24.12 0c13.3 0 24.122 10.767 24.122 24S37.42 48 24.12 48C10.82 48 0 37.233 0 24S10.821 0 24.12 0zm0 2.717C12.327 2.717 2.732 12.264 2.732 24s9.595 21.283 21.39 21.283S45.51 35.736 45.51 24 35.916 2.717 24.12 2.717zm1.366 4.62c0 4.186 3.423 7.59 7.63 7.59v2.718c-3.02 0-5.734-1.3-7.63-3.36v1.513c0 4.185 3.423 7.59 7.63 7.59v2.717c-3.02 0-5.734-1.3-7.63-3.359v1.512c0 4.186 3.423 7.59 7.63 7.59v2.717c-3.02 0-5.734-1.3-7.63-3.358v9.455h-2.73V31.21a10.346 10.346 0 01-7.63 3.356v-2.717c4.208 0 7.63-3.404 7.63-7.59v-1.51a10.346 10.346 0 01-7.63 3.357v-2.717c4.208 0 7.63-3.405 7.63-7.59v-1.512a10.34 10.34 0 01-7.63 3.359v-2.718c4.208 0 7.63-3.404 7.63-7.59h2.73zM154.36 28.345l3.147 5.768v-5.768h2.493v10.466h-2.571l-3.069-5.752v5.752h-2.494V28.345h2.494zm-52.711.002c.732 0 1.232.496 1.232 1.224v8.016c0 .728-.5 1.224-1.232 1.224h-5.407c-.732 0-1.23-.496-1.23-1.224V29.57c0-.728.498-1.224 1.23-1.224h5.407zm21.201-.002c.733 0 1.231.498 1.231 1.226v9.24h-2.71v-2.605h-2.383v2.605h-2.712v-9.24c0-.728.498-1.226 1.23-1.226h5.344zm24.881.002c.732 0 1.232.496 1.232 1.224v8.016c0 .728-.5 1.224-1.232 1.224h-5.407c-.732 0-1.23-.496-1.23-1.224V29.57c0-.728.498-1.224 1.23-1.224h5.407zm-9.539 0V38.81h-2.695V28.346h2.695zm-69.061-.001l1.59 2.992 1.323-2.992h2.916l-2.898 5.41 2.865 5.054h-2.991l-1.558-2.883-1.496 2.883H66.03l3.054-5.224-2.976-5.24h3.022zm43.26 0a1.18 1.18 0 011.183 1.178v4.792a1.2 1.2 0 01-1.183 1.177h-.078l1.293 3.317h-2.649l-1.309-3.317h-1.152v3.317h-2.712V28.345h6.607zm-47.799 0v2.248h-4.176v1.83h3.615v2.23h-3.615v1.893h4.176v2.263H57.72V28.346h6.871zm18.74 0c.637 0 1.183.512 1.183 1.178v5.38c0 .62-.546 1.177-1.183 1.177h-3.724v2.729h-2.712V28.345h6.436zm6.423 0v8.201h3.351v2.263H87.06V28.346h2.695zm43.728 0v2.263h-2.383v8.201h-2.712V30.61h-2.385v-2.263h7.48zM99.997 30.61h-2.134c-.063 0-.14.078-.14.17v5.628c0 .078.077.14.14.14h2.134c.093 0 .171-.062.171-.14V30.78a.172.172 0 00-.171-.17zm46.082 0h-2.134c-.062 0-.14.078-.14.17v5.628c0 .078.078.14.14.14h2.134c.093 0 .171-.062.171-.14V30.78a.172.172 0 00-.171-.17zm-25.084-.125h-1.683a.315.315 0 00-.325.31v3.147h2.383v-3.147c0-.185-.156-.31-.375-.31zm-39.332.108h-2.056v3.272h2.056c.078 0 .14-.077.14-.14V30.75c0-.078-.062-.155-.14-.155zm29.074 0h-2.242v2.792h2.242c.063 0 .141-.078.141-.14v-2.496c0-.078-.078-.155-.141-.155zM98.68 9.19v3.313h-3.49V24.51h-3.97V12.502h-3.49V9.19h10.95zm59.54 0c.936 0 1.734.75 1.734 1.726v7.012c0 .93-.798 1.724-1.734 1.724h-.112L160 24.51h-3.878l-1.915-4.858h-1.689v4.858h-3.969V9.189h9.671zm-80.762 0v11.802c0 .114.114.205.205.205h2.897c.136 0 .25-.091.25-.205V9.19h3.97v13.572c0 .999-.776 1.748-1.735 1.748h-7.801c-.934 0-1.755-.75-1.755-1.748V9.189h3.969zm-10.022 0c1.072 0 1.803.726 1.803 1.793v11.734c0 1.067-.73 1.792-1.803 1.792h-7.914c-1.072 0-1.803-.725-1.803-1.792V10.982c0-1.067.73-1.792 1.803-1.792h7.914zm42.472 0c1.687 0 3.125 1.385 3.125 3.108v9.08a3.141 3.141 0 01-3.125 3.132h-8.28V9.189h8.28zm16.955 0c1.073 0 1.803.726 1.803 1.793v11.734c0 1.067-.73 1.792-1.803 1.792h-7.914c-1.072 0-1.802-.725-1.802-1.792V10.982c0-1.067.73-1.792 1.802-1.792h7.914zm15.633 0c1.073 0 1.803.726 1.803 1.793v11.734c0 1.067-.73 1.792-1.803 1.792h-7.913c-1.073 0-1.803-.725-1.803-1.792V10.982c0-1.067.73-1.792 1.803-1.792h7.913zm-34.528 3.292h-2.371v8.714h2.371c.662 0 1.119-.454 1.119-1.113v-6.49c0-.659-.457-1.111-1.119-1.111zm-42.95.022h-3.124c-.091 0-.206.114-.206.25v8.239c0 .113.114.203.206.203h3.124c.137 0 .251-.09.251-.203v-8.24a.253.253 0 00-.25-.249zm59.428 0h-3.125c-.091 0-.205.114-.205.25v8.239c0 .113.114.203.205.203h3.125c.137 0 .251-.09.251-.203v-8.24a.253.253 0 00-.251-.249zm15.633 0h-3.125c-.091 0-.205.114-.205.25v8.239c0 .113.114.203.205.203h3.125c.137 0 .251-.09.251-.203v-8.24a.253.253 0 00-.251-.249zm15.724-.024h-3.285v4.086h3.285c.091 0 .205-.114.205-.204v-3.654c0-.114-.114-.228-.205-.228z" fill="#fff"/></svg></svg>